<svg xmlns="http://www.w3.org/2000/svg" xmlns:xlink="http://www.w3.org/1999/xlink" width="500" zoomAndPan="magnify" viewBox="0 0 375 187.499995" height="250" preserveAspectRatio="xMidYMid meet" version="1.0"><defs><g/><clipPath id="80db3249b4"><path d="M 0.5 0 L 374.5 0 L 374.5 187 L 0.5 187 Z M 0.5 0 " clip-rule="nonzero"/></clipPath><clipPath id="2ebd7c7088"><path d="M 4.191406 11.0625 L 103.800781 11.0625 L 103.800781 176.773438 L 4.191406 176.773438 Z M 4.191406 11.0625 " clip-rule="nonzero"/></clipPath><clipPath id="715ddede27"><path d="M 0.191406 0.0625 L 99.800781 0.0625 L 99.800781 165.773438 L 0.191406 165.773438 Z M 0.191406 0.0625 " clip-rule="nonzero"/></clipPath><clipPath id="99bee170bb"><rect x="0" width="100" y="0" height="166"/></clipPath><clipPath id="c11b9e45a5"><rect x="0" width="20" y="0" height="65"/></clipPath><clipPath id="d34c445a8e"><rect x="0" width="21" y="0" height="64"/></clipPath><clipPath id="0a4ea87702"><rect x="0" width="21" y="0" height="64"/></clipPath><clipPath id="eb8660cd94"><path d="M 0.0585938 6 L 17 6 L 17 58 L 0.0585938 58 Z M 0.0585938 6 " clip-rule="nonzero"/></clipPath><clipPath id="ca36065f41"><rect x="0" width="20" y="0" height="64"/></clipPath><clipPath id="d1cc27abd8"><path d="M 189.929688 15.15625 L 216.191406 15.15625 L 216.191406 40.511719 L 189.929688 40.511719 Z M 189.929688 15.15625 " clip-rule="nonzero"/></clipPath><clipPath id="9cd38f1be2"><path d="M 0.929688 8 L 8 8 L 8 25.511719 L 0.929688 25.511719 Z M 0.929688 8 " clip-rule="nonzero"/></clipPath><clipPath id="56f2eb1318"><path d="M 2 8 L 8 8 L 8 25.511719 L 2 25.511719 Z M 2 8 " clip-rule="nonzero"/></clipPath><clipPath id="02dd1f0776"><path d="M 0.929688 7 L 8 7 L 8 25.511719 L 0.929688 25.511719 Z M 0.929688 7 " clip-rule="nonzero"/></clipPath><clipPath id="ab47719ede"><path d="M 4 0.15625 L 26.976562 0.15625 L 26.976562 13 L 4 13 Z M 4 0.15625 " clip-rule="nonzero"/></clipPath><clipPath id="9aa27323db"><path d="M 4 0.15625 L 24 0.15625 L 24 12 L 4 12 Z M 4 0.15625 " clip-rule="nonzero"/></clipPath><clipPath id="5b86531624"><path d="M 17 6 L 26.976562 6 L 26.976562 12 L 17 12 Z M 17 6 " clip-rule="nonzero"/></clipPath><clipPath id="464ed14536"><path d="M 21 8 L 26.976562 8 L 26.976562 13 L 21 13 Z M 21 8 " clip-rule="nonzero"/></clipPath><clipPath id="f72ff78241"><path d="M 4 0.15625 L 26.976562 0.15625 L 26.976562 13 L 4 13 Z M 4 0.15625 " clip-rule="nonzero"/></clipPath><clipPath id="c13fb41771"><rect x="0" width="28" y="0" height="26"/></clipPath><clipPath id="7d56e38b17"><path d="M 271.191406 9.914062 L 370.796875 9.914062 L 370.796875 175.621094 L 271.191406 175.621094 Z M 271.191406 9.914062 " clip-rule="nonzero"/></clipPath><clipPath id="a8dfca2111"><rect x="0" width="375" y="0" height="187"/></clipPath></defs><g clip-path="url(#80db3249b4)"><g transform="matrix(1, 0, 0, 1, 0, 0)"><g clip-path="url(#a8dfca2111)"><path stroke-linecap="butt" transform="matrix(0.905513, -0.000000000000000337, 0.000000000000000337, 0.905513, 90.896113, 98.925056)" fill="none" stroke-linejoin="miter" d="M 11.24878 1.502021 L 197.73661 1.502021 " stroke="#ffd631" stroke-width="3" stroke-opacity="1" stroke-miterlimit="4"/><path stroke-linecap="round" transform="matrix(0.905513, -0.000000000000000337, 0.000000000000000337, 0.905513, 90.896113, 98.925056)" fill="none" stroke-linejoin="round" d="M 1.499474 1.502021 C 1.499474 -0.987071 3.514043 -3.00164 5.998822 -3.00164 C 8.483601 -3.00164 10.49817 -0.987071 10.49817 1.502021 C 10.49817 3.9868 8.483601 6.001369 5.998822 6.001369 C 3.514043 6.001369 1.499474 3.9868 1.499474 1.502021 " stroke="#ffd631" stroke-width="3" stroke-opacity="1" stroke-miterlimit="4"/><path stroke-linecap="round" transform="matrix(0.905513, -0.000000000000000337, 0.000000000000000337, 0.905513, 90.896113, 98.925056)" fill="none" stroke-linejoin="round" d="M 207.49023 1.502021 C 207.49023 3.9868 205.471347 6.001369 202.986568 6.001369 C 200.501789 6.001369 198.48722 3.9868 198.48722 1.502021 C 198.48722 -0.987071 200.501789 -3.00164 202.986568 -3.00164 C 205.471347 -3.00164 207.49023 -0.987071 207.49023 1.502021 " stroke="#ffd631" stroke-width="3" stroke-opacity="1" stroke-miterlimit="4"/><g clip-path="url(#2ebd7c7088)"><g transform="matrix(1, 0, 0, 1, 4, 11)"><g clip-path="url(#99bee170bb)"><g clip-path="url(#715ddede27)"><path fill="#021622" d="M 94.984375 161.265625 C 95.371094 160.878906 95.742188 160.476562 96.089844 160.054688 C 96.4375 159.632812 96.765625 159.195312 97.070312 158.742188 C 97.375 158.289062 97.65625 157.820312 97.914062 157.339844 C 98.171875 156.859375 98.410156 156.367188 98.617188 155.863281 C 98.828125 155.355469 99.011719 154.84375 99.171875 154.320312 C 99.332031 153.796875 99.464844 153.269531 99.574219 152.734375 C 99.679688 152.195312 99.761719 151.65625 99.8125 151.113281 C 99.867188 150.570312 99.894531 150.023438 99.894531 149.476562 C 99.894531 148.929688 99.867188 148.386719 99.8125 147.84375 C 99.761719 147.296875 99.679688 146.757812 99.574219 146.222656 C 99.464844 145.6875 99.332031 145.15625 99.171875 144.632812 C 99.011719 144.109375 98.828125 143.597656 98.617188 143.09375 C 98.410156 142.589844 98.171875 142.09375 97.914062 141.613281 C 97.65625 141.132812 97.375 140.664062 97.070312 140.210938 C 96.765625 139.757812 96.4375 139.320312 96.089844 138.898438 C 95.742188 138.480469 95.371094 138.074219 94.984375 137.691406 L 40.199219 83.074219 L 94.984375 28.457031 C 95.371094 28.070312 95.742188 27.667969 96.089844 27.246094 C 96.4375 26.824219 96.765625 26.386719 97.070312 25.933594 C 97.375 25.480469 97.65625 25.011719 97.914062 24.53125 C 98.171875 24.050781 98.410156 23.558594 98.617188 23.054688 C 98.828125 22.546875 99.011719 22.035156 99.171875 21.511719 C 99.332031 20.988281 99.464844 20.460938 99.574219 19.925781 C 99.679688 19.386719 99.761719 18.847656 99.8125 18.304688 C 99.867188 17.761719 99.894531 17.214844 99.894531 16.667969 C 99.894531 16.121094 99.867188 15.578125 99.8125 15.035156 C 99.761719 14.488281 99.679688 13.949219 99.574219 13.414062 C 99.464844 12.878906 99.332031 12.347656 99.171875 11.824219 C 99.011719 11.300781 98.828125 10.789062 98.617188 10.285156 C 98.410156 9.78125 98.171875 9.285156 97.914062 8.804688 C 97.65625 8.324219 97.375 7.855469 97.070312 7.402344 C 96.765625 6.949219 96.4375 6.511719 96.089844 6.089844 C 95.742188 5.671875 95.371094 5.265625 94.984375 4.882812 C 94.601562 4.492188 94.195312 4.125 93.773438 3.777344 C 93.355469 3.429688 92.917969 3.101562 92.464844 2.796875 C 92.011719 2.492188 91.542969 2.210938 91.0625 1.953125 C 90.578125 1.691406 90.085938 1.457031 89.582031 1.25 C 89.078125 1.039062 88.5625 0.851562 88.042969 0.695312 C 87.519531 0.535156 86.988281 0.402344 86.453125 0.292969 C 85.917969 0.1875 85.378906 0.105469 84.832031 0.0507812 C 84.289062 0 83.746094 -0.0273438 83.199219 -0.0273438 C 82.652344 -0.0273438 82.105469 0 81.5625 0.0507812 C 81.019531 0.105469 80.476562 0.1875 79.941406 0.292969 C 79.40625 0.402344 78.878906 0.535156 78.355469 0.695312 C 77.832031 0.851562 77.316406 1.039062 76.8125 1.25 C 76.308594 1.457031 75.816406 1.691406 75.335938 1.953125 C 74.851562 2.210938 74.386719 2.492188 73.933594 2.796875 C 73.480469 3.101562 73.042969 3.429688 72.621094 3.777344 C 72.199219 4.125 71.796875 4.492188 71.410156 4.882812 L 5.007812 71.285156 C 4.617188 71.671875 4.25 72.074219 3.902344 72.496094 C 3.554688 72.917969 3.226562 73.355469 2.921875 73.808594 C 2.617188 74.261719 2.335938 74.730469 2.078125 75.210938 C 1.816406 75.691406 1.582031 76.183594 1.371094 76.6875 C 1.164062 77.195312 0.976562 77.707031 0.820312 78.230469 C 0.660156 78.753906 0.527344 79.28125 0.417969 79.816406 C 0.3125 80.355469 0.230469 80.894531 0.175781 81.4375 C 0.125 81.980469 0.0976562 82.527344 0.0976562 83.074219 C 0.0976562 83.621094 0.125 84.164062 0.175781 84.707031 C 0.230469 85.253906 0.3125 85.792969 0.417969 86.328125 C 0.527344 86.863281 0.660156 87.394531 0.820312 87.917969 C 0.976562 88.441406 1.164062 88.953125 1.371094 89.457031 C 1.582031 89.960938 1.816406 90.453125 2.078125 90.9375 C 2.335938 91.417969 2.617188 91.886719 2.921875 92.339844 C 3.226562 92.792969 3.554688 93.230469 3.902344 93.652344 C 4.25 94.070312 4.617188 94.476562 5.007812 94.859375 L 71.410156 161.265625 C 71.796875 161.652344 72.199219 162.019531 72.621094 162.367188 C 73.042969 162.71875 73.480469 163.042969 73.933594 163.347656 C 74.386719 163.652344 74.851562 163.9375 75.335938 164.195312 C 75.816406 164.453125 76.308594 164.6875 76.8125 164.898438 C 77.316406 165.109375 77.832031 165.292969 78.355469 165.453125 C 78.878906 165.613281 79.40625 165.746094 79.941406 165.851562 C 80.476562 165.960938 81.019531 166.039062 81.5625 166.09375 C 82.105469 166.148438 82.652344 166.175781 83.199219 166.175781 C 83.746094 166.175781 84.289062 166.148438 84.832031 166.09375 C 85.378906 166.039062 85.917969 165.960938 86.453125 165.851562 C 86.988281 165.746094 87.519531 165.613281 88.042969 165.453125 C 88.5625 165.292969 89.078125 165.109375 89.582031 164.898438 C 90.085938 164.6875 90.578125 164.453125 91.0625 164.195312 C 91.542969 163.9375 92.011719 163.652344 92.464844 163.347656 C 92.917969 163.042969 93.355469 162.71875 93.773438 162.367188 C 94.195312 162.019531 94.601562 161.652344 94.984375 161.265625 Z M 94.984375 161.265625 " fill-opacity="1" fill-rule="nonzero"/></g></g></g></g><path fill="#24afff" d="M 211.132812 39.914062 C 206.683594 43.226562 200.394531 42.296875 197.078125 37.847656 C 193.773438 33.414062 194.703125 27.121094 199.144531 23.824219 C 203.59375 20.511719 209.871094 21.4375 213.183594 25.878906 C 216.503906 30.328125 215.574219 36.605469 211.132812 39.914062 Z M 211.132812 39.914062 " fill-opacity="1" fill-rule="evenodd"/><path fill="#24afff" d="M 176.511719 33.566406 L 162.792969 38.761719 C 157.296875 40.804688 160.425781 49.039062 165.886719 46.914062 L 177.371094 42.5625 L 183.65625 47.242188 L 170.527344 62.433594 C 168.890625 64.320312 168.453125 67.496094 170.375 69.089844 L 183.105469 79.671875 L 171.707031 92.847656 C 167.425781 97.984375 174.976562 104.5 179.433594 99.519531 L 194.234375 82.414062 C 196.109375 80.25 195.839844 76.96875 193.640625 75.140625 L 184.929688 67.910156 L 195.289062 55.933594 L 204.109375 62.503906 C 205.304688 63.398438 206.871094 63.613281 208.257812 63.089844 L 221.960938 57.886719 C 227.632812 55.945312 224.421875 47.445312 218.882812 49.738281 L 207.398438 54.085938 L 197.816406 46.949219 L 193.082031 43.410156 L 180.664062 34.144531 C 179.191406 33.050781 178.003906 33.003906 176.511719 33.566406 Z M 176.511719 33.566406 " fill-opacity="1" fill-rule="nonzero"/><path fill="#24afff" d="M 168.417969 71.359375 L 149.96875 92.71875 C 145.644531 97.859375 153.222656 104.417969 157.695312 99.410156 L 176.292969 77.90625 Z M 168.417969 71.359375 " fill-opacity="1" fill-rule="nonzero"/><g fill="#24afff" fill-opacity="1"><g transform="translate(101.693387, 133.118582)"><g><path d="M 21.484375 -7.921875 L 18.484375 0 L 0.75 0 L 0.203125 -2.203125 L 13.09375 -19.96875 C 12.53125 -20.007812 12.113281 -20.039062 11.84375 -20.0625 C 11.570312 -20.09375 11.3125 -20.109375 11.0625 -20.109375 C 7.226562 -20.109375 4.382812 -18.300781 2.53125 -14.6875 L 0.203125 -15.671875 L 3.546875 -23.046875 L 19.90625 -23.046875 L 20.46875 -20.875 L 7.6875 -3.1875 C 8.207031 -3.09375 8.632812 -3.023438 8.96875 -2.984375 C 9.300781 -2.953125 9.671875 -2.9375 10.078125 -2.9375 C 11.367188 -2.9375 12.578125 -3.117188 13.703125 -3.484375 C 14.835938 -3.847656 15.785156 -4.367188 16.546875 -5.046875 C 17.109375 -5.515625 17.578125 -6.03125 17.953125 -6.59375 C 18.328125 -7.164062 18.671875 -7.878906 18.984375 -8.734375 Z M 21.484375 -7.921875 "/></g></g></g><g fill="#021622" fill-opacity="1"><g transform="translate(124.373662, 133.118582)"><g><path d="M 19.796875 -8.390625 C 19.796875 -6.628906 19.410156 -5.097656 18.640625 -3.796875 C 17.878906 -2.503906 16.789062 -1.5 15.375 -0.78125 C 13.96875 -0.0625 12.316406 0.296875 10.421875 0.296875 C 8.503906 0.296875 6.84375 -0.0664062 5.4375 -0.796875 C 4.039062 -1.523438 2.957031 -2.566406 2.1875 -3.921875 C 1.425781 -5.273438 1.046875 -6.878906 1.046875 -8.734375 C 1.046875 -10.441406 1.4375 -11.929688 2.21875 -13.203125 C 3 -14.484375 4.078125 -15.484375 5.453125 -16.203125 C 6.828125 -16.929688 8.425781 -17.296875 10.25 -17.296875 C 12.195312 -17.296875 13.882812 -16.929688 15.3125 -16.203125 C 16.75 -15.484375 17.851562 -14.457031 18.625 -13.125 C 19.40625 -11.800781 19.796875 -10.222656 19.796875 -8.390625 Z M 13.640625 -8.265625 C 13.640625 -11.984375 12.578125 -13.84375 10.453125 -13.84375 C 8.285156 -13.84375 7.203125 -12.003906 7.203125 -8.328125 C 7.203125 -4.765625 8.285156 -2.984375 10.453125 -2.984375 C 12.578125 -2.984375 13.640625 -4.742188 13.640625 -8.265625 Z M 13.640625 -8.265625 "/></g></g></g><g fill="#021622" fill-opacity="1"><g transform="translate(146.372233, 133.118582)"><g><path d="M 22.09375 0 L 14.65625 0 L 14.65625 -1.3125 C 13.53125 -0.664062 12.535156 -0.210938 11.671875 0.046875 C 10.816406 0.304688 9.835938 0.4375 8.734375 0.4375 C 7.359375 0.4375 6.289062 0.21875 5.53125 -0.21875 C 4.78125 -0.65625 4.238281 -1.207031 3.90625 -1.875 C 3.582031 -2.539062 3.382812 -3.222656 3.3125 -3.921875 C 3.25 -4.617188 3.21875 -5.21875 3.21875 -5.71875 L 3.21875 -10.421875 C 3.21875 -11.460938 3.09375 -12.160156 2.84375 -12.515625 C 2.59375 -12.878906 2.097656 -13.109375 1.359375 -13.203125 L 0.75 -13.265625 L 0.75 -16.015625 L 6.59375 -16.984375 L 8.703125 -16.984375 L 8.703125 -5.828125 C 8.703125 -4.847656 8.8125 -4.195312 9.03125 -3.875 C 9.257812 -3.550781 9.710938 -3.390625 10.390625 -3.390625 C 10.929688 -3.390625 11.484375 -3.484375 12.046875 -3.671875 C 12.609375 -3.859375 13.285156 -4.191406 14.078125 -4.671875 L 14.078125 -10.421875 C 14.078125 -11.460938 13.953125 -12.160156 13.703125 -12.515625 C 13.453125 -12.878906 12.957031 -13.109375 12.21875 -13.203125 L 11.609375 -13.265625 L 11.609375 -16.015625 L 17.46875 -16.984375 L 19.5625 -16.984375 L 19.5625 -5.546875 C 19.5625 -4.578125 19.648438 -3.945312 19.828125 -3.65625 C 20.015625 -3.363281 20.421875 -3.140625 21.046875 -2.984375 L 22.09375 -2.734375 Z M 22.09375 0 "/></g></g></g><g fill="#021622" fill-opacity="1"><g transform="translate(169.724541, 133.118582)"><g><path d="M 10.890625 0 L 0.296875 0 L 0.296875 -2.734375 L 1.390625 -2.984375 C 2.046875 -3.117188 2.457031 -3.335938 2.625 -3.640625 C 2.789062 -3.941406 2.875 -4.578125 2.875 -5.546875 L 2.875 -17.5 C 2.875 -18.351562 2.773438 -19 2.578125 -19.4375 C 2.390625 -19.882812 1.820312 -20.148438 0.875 -20.234375 L 0.296875 -20.3125 L 0.296875 -23.046875 C 1.429688 -23.160156 2.425781 -23.316406 3.28125 -23.515625 C 4.132812 -23.722656 5.082031 -24.050781 6.125 -24.5 L 8.359375 -24.5 L 8.359375 -5.546875 C 8.359375 -4.578125 8.445312 -3.945312 8.625 -3.65625 C 8.8125 -3.363281 9.21875 -3.140625 9.84375 -2.984375 L 10.890625 -2.734375 Z M 10.890625 0 "/></g></g></g><g fill="#ffffff" fill-opacity="1"><g transform="translate(182.255762, 133.118582)"><g/></g></g><g fill="#ffd631" fill-opacity="1"><g transform="translate(194.79146, 133.118582)"><g><path d="M 24.5 -6.734375 C 23.957031 -5.285156 23.132812 -4.023438 22.03125 -2.953125 C 20.925781 -1.890625 19.628906 -1.054688 18.140625 -0.453125 C 16.648438 0.140625 15.046875 0.4375 13.328125 0.4375 C 10.984375 0.4375 8.890625 -0.0703125 7.046875 -1.09375 C 5.210938 -2.125 3.773438 -3.539062 2.734375 -5.34375 C 1.703125 -7.15625 1.1875 -9.222656 1.1875 -11.546875 C 1.1875 -12.535156 1.304688 -13.582031 1.546875 -14.6875 C 1.796875 -15.789062 2.195312 -16.859375 2.75 -17.890625 C 3.3125 -18.929688 4.035156 -19.875 4.921875 -20.71875 C 5.816406 -21.570312 6.910156 -22.242188 8.203125 -22.734375 C 9.503906 -23.234375 11.023438 -23.484375 12.765625 -23.484375 C 14.835938 -23.484375 16.71875 -23.078125 18.40625 -22.265625 L 18.6875 -23.046875 L 21.015625 -23.046875 L 23.859375 -15.0625 L 21.25 -14.078125 C 20.757812 -14.960938 20.351562 -15.65625 20.03125 -16.15625 C 19.71875 -16.664062 19.441406 -17.078125 19.203125 -17.390625 C 18.960938 -17.710938 18.707031 -18.019531 18.4375 -18.3125 C 16.882812 -19.914062 15.285156 -20.71875 13.640625 -20.71875 C 11.804688 -20.71875 10.351562 -19.898438 9.28125 -18.265625 C 8.21875 -16.628906 7.6875 -14.398438 7.6875 -11.578125 C 7.6875 -9.835938 7.898438 -8.390625 8.328125 -7.234375 C 8.753906 -6.085938 9.300781 -5.179688 9.96875 -4.515625 C 10.632812 -3.847656 11.335938 -3.375 12.078125 -3.09375 C 12.828125 -2.8125 13.53125 -2.671875 14.1875 -2.671875 C 15.3125 -2.671875 16.300781 -2.894531 17.15625 -3.34375 C 18.007812 -3.800781 18.753906 -4.347656 19.390625 -4.984375 C 20.023438 -5.628906 20.523438 -6.238281 20.890625 -6.8125 C 21.265625 -7.394531 21.519531 -7.796875 21.65625 -8.015625 Z M 24.5 -6.734375 "/></g></g></g><g fill="#021622" fill-opacity="1"><g transform="translate(220.853262, 133.118582)"><g><path d="M 19.796875 -8.390625 C 19.796875 -6.628906 19.410156 -5.097656 18.640625 -3.796875 C 17.878906 -2.503906 16.789062 -1.5 15.375 -0.78125 C 13.96875 -0.0625 12.316406 0.296875 10.421875 0.296875 C 8.503906 0.296875 6.84375 -0.0664062 5.4375 -0.796875 C 4.039062 -1.523438 2.957031 -2.566406 2.1875 -3.921875 C 1.425781 -5.273438 1.046875 -6.878906 1.046875 -8.734375 C 1.046875 -10.441406 1.4375 -11.929688 2.21875 -13.203125 C 3 -14.484375 4.078125 -15.484375 5.453125 -16.203125 C 6.828125 -16.929688 8.425781 -17.296875 10.25 -17.296875 C 12.195312 -17.296875 13.882812 -16.929688 15.3125 -16.203125 C 16.75 -15.484375 17.851562 -14.457031 18.625 -13.125 C 19.40625 -11.800781 19.796875 -10.222656 19.796875 -8.390625 Z M 13.640625 -8.265625 C 13.640625 -11.984375 12.578125 -13.84375 10.453125 -13.84375 C 8.285156 -13.84375 7.203125 -12.003906 7.203125 -8.328125 C 7.203125 -4.765625 8.285156 -2.984375 10.453125 -2.984375 C 12.578125 -2.984375 13.640625 -4.742188 13.640625 -8.265625 Z M 13.640625 -8.265625 "/></g></g></g><g fill="#021622" fill-opacity="1"><g transform="translate(242.851832, 133.118582)"><g><path d="M 21.046875 0 L 13.46875 0 L 13.46875 -1.28125 C 12.25 -0.226562 10.691406 0.296875 8.796875 0.296875 C 7.492188 0.296875 6.347656 0.046875 5.359375 -0.453125 C 4.378906 -0.960938 3.570312 -1.632812 2.9375 -2.46875 C 2.3125 -3.300781 1.835938 -4.222656 1.515625 -5.234375 C 1.203125 -6.253906 1.046875 -7.273438 1.046875 -8.296875 C 1.046875 -10.003906 1.398438 -11.535156 2.109375 -12.890625 C 2.828125 -14.242188 3.785156 -15.316406 4.984375 -16.109375 C 6.191406 -16.898438 7.550781 -17.296875 9.0625 -17.296875 C 10.488281 -17.296875 11.789062 -16.96875 12.96875 -16.3125 L 12.96875 -17.5 C 12.96875 -18.53125 12.847656 -19.210938 12.609375 -19.546875 C 12.367188 -19.890625 11.820312 -20.117188 10.96875 -20.234375 L 10.484375 -20.3125 L 10.484375 -23.046875 C 11.347656 -23.117188 12.335938 -23.289062 13.453125 -23.5625 C 14.566406 -23.832031 15.632812 -24.144531 16.65625 -24.5 L 18.4375 -24.5 L 18.4375 -5.546875 C 18.4375 -4.578125 18.523438 -3.941406 18.703125 -3.640625 C 18.890625 -3.335938 19.300781 -3.117188 19.9375 -2.984375 L 21.046875 -2.734375 Z M 12.96875 -4.671875 L 12.96875 -12.65625 C 12.175781 -13.3125 11.269531 -13.640625 10.25 -13.640625 C 9.21875 -13.640625 8.382812 -13.144531 7.75 -12.15625 C 7.113281 -11.175781 6.796875 -9.863281 6.796875 -8.21875 C 6.796875 -6.78125 7.085938 -5.59375 7.671875 -4.65625 C 8.265625 -3.71875 9.015625 -3.25 9.921875 -3.25 C 10.460938 -3.25 11.015625 -3.378906 11.578125 -3.640625 C 12.140625 -3.898438 12.601562 -4.242188 12.96875 -4.671875 Z M 12.96875 -4.671875 "/></g></g></g><g fill="#021622" fill-opacity="1"><g transform="translate(265.527271, 133.118582)"><g><path d="M 18.546875 -4.84375 C 18.203125 -4.300781 17.8125 -3.734375 17.375 -3.140625 C 16.9375 -2.554688 16.398438 -2 15.765625 -1.46875 C 15.140625 -0.9375 14.375 -0.507812 13.46875 -0.1875 C 12.5625 0.132812 11.488281 0.296875 10.25 0.296875 C 8.46875 0.296875 6.882812 -0.0820312 5.5 -0.84375 C 4.113281 -1.613281 3.023438 -2.660156 2.234375 -3.984375 C 1.441406 -5.316406 1.046875 -6.84375 1.046875 -8.5625 C 1.046875 -10.28125 1.421875 -11.789062 2.171875 -13.09375 C 2.929688 -14.40625 3.984375 -15.429688 5.328125 -16.171875 C 6.671875 -16.921875 8.210938 -17.296875 9.953125 -17.296875 C 11.578125 -17.296875 13.035156 -16.960938 14.328125 -16.296875 C 15.628906 -15.628906 16.609375 -14.707031 17.265625 -13.53125 C 17.578125 -12.96875 17.800781 -12.300781 17.9375 -11.53125 C 18.070312 -10.769531 18.140625 -9.789062 18.140625 -8.59375 L 7.171875 -8.59375 C 7.171875 -6.90625 7.523438 -5.609375 8.234375 -4.703125 C 8.953125 -3.796875 9.960938 -3.34375 11.265625 -3.34375 C 12.941406 -3.34375 14.421875 -4.304688 15.703125 -6.234375 Z M 12.15625 -11.203125 C 12.125 -12.265625 11.929688 -13.023438 11.578125 -13.484375 C 11.234375 -13.953125 10.679688 -14.1875 9.921875 -14.1875 C 9.148438 -14.1875 8.546875 -13.921875 8.109375 -13.390625 C 7.671875 -12.859375 7.425781 -12.128906 7.375 -11.203125 Z M 12.15625 -11.203125 "/></g></g></g><g transform="matrix(1, 0, 0, 1, 230, 30)"><g clip-path="url(#c11b9e45a5)"><g fill="#ffd631" fill-opacity="1"><g transform="translate(0.372615, 51.795979)"><g><path d="M 6.09375 5.625 L 1.125 5.625 L 1.125 0.40625 L 3.171875 0.40625 C 4.234375 0.40625 4.890625 0.0703125 5.140625 -0.59375 C 5.398438 -1.257812 5.53125 -1.96875 5.53125 -2.71875 L 5.53125 -11.71875 C 5.53125 -14.039062 5.988281 -15.796875 6.90625 -16.984375 C 7.832031 -18.179688 9.03125 -19.019531 10.5 -19.5 C 9.03125 -19.976562 7.832031 -20.820312 6.90625 -22.03125 C 5.988281 -23.25 5.53125 -25 5.53125 -27.28125 L 5.53125 -36.296875 C 5.53125 -37.046875 5.398438 -37.753906 5.140625 -38.421875 C 4.890625 -39.085938 4.234375 -39.421875 3.171875 -39.421875 L 1.125 -39.421875 L 1.125 -44.640625 L 6.09375 -44.640625 C 8.238281 -44.640625 9.835938 -43.894531 10.890625 -42.40625 C 11.953125 -40.925781 12.484375 -38.941406 12.484375 -36.453125 L 12.484375 -27.4375 C 12.484375 -26.28125 12.660156 -25.375 13.015625 -24.71875 C 13.378906 -24.070312 13.851562 -23.585938 14.4375 -23.265625 C 15.019531 -22.941406 15.613281 -22.675781 16.21875 -22.46875 L 16.21875 -16.53125 C 15.613281 -16.320312 15.019531 -16.054688 14.4375 -15.734375 C 13.851562 -15.410156 13.378906 -14.929688 13.015625 -14.296875 C 12.660156 -13.671875 12.484375 -12.757812 12.484375 -11.5625 L 12.484375 -2.5625 C 12.484375 -0.0703125 11.953125 1.910156 10.890625 3.390625 C 9.835938 4.878906 8.238281 5.625 6.09375 5.625 Z M 6.09375 5.625 "/></g></g></g></g></g><g transform="matrix(1, 0, 0, 1, 126, 32)"><g clip-path="url(#d34c445a8e)"><g fill="#ffd631" fill-opacity="1"><g transform="translate(0.98267, 51.61017)"><g><path d="M 15.96875 5.625 L 11 5.625 C 8.851562 5.625 7.25 4.878906 6.1875 3.390625 C 5.132812 1.910156 4.609375 -0.0703125 4.609375 -2.5625 L 4.609375 -11.5625 C 4.609375 -12.757812 4.425781 -13.671875 4.0625 -14.296875 C 3.707031 -14.929688 3.25 -15.410156 2.6875 -15.734375 C 2.125 -16.054688 1.519531 -16.320312 0.875 -16.53125 L 0.875 -22.46875 C 1.519531 -22.675781 2.125 -22.941406 2.6875 -23.265625 C 3.25 -23.585938 3.707031 -24.070312 4.0625 -24.71875 C 4.425781 -25.375 4.609375 -26.28125 4.609375 -27.4375 L 4.609375 -36.453125 C 4.609375 -38.941406 5.132812 -40.925781 6.1875 -42.40625 C 7.25 -43.894531 8.851562 -44.640625 11 -44.640625 L 15.96875 -44.640625 L 15.96875 -39.421875 L 13.921875 -39.421875 C 12.867188 -39.421875 12.210938 -39.085938 11.953125 -38.421875 C 11.691406 -37.753906 11.5625 -37.046875 11.5625 -36.296875 L 11.5625 -27.28125 C 11.5625 -25 11.109375 -23.25 10.203125 -22.03125 C 9.304688 -20.820312 8.109375 -19.976562 6.609375 -19.5 C 8.109375 -19.019531 9.304688 -18.179688 10.203125 -16.984375 C 11.109375 -15.796875 11.5625 -14.039062 11.5625 -11.71875 L 11.5625 -2.71875 C 11.5625 -1.96875 11.691406 -1.257812 11.953125 -0.59375 C 12.210938 0.0703125 12.867188 0.40625 13.921875 0.40625 L 15.96875 0.40625 Z M 15.96875 5.625 "/></g></g></g></g></g><g transform="matrix(1, 0, 0, 1, 250, 32)"><g clip-path="url(#0a4ea87702)"><g fill="#24afff" fill-opacity="1"><g transform="translate(1.04827, 51.61017)"><g><path d="M 6.09375 5.625 L 1.125 5.625 L 1.125 0.40625 L 3.171875 0.40625 C 4.234375 0.40625 4.890625 0.0703125 5.140625 -0.59375 C 5.398438 -1.257812 5.53125 -1.96875 5.53125 -2.71875 L 5.53125 -11.71875 C 5.53125 -14.039062 5.988281 -15.796875 6.90625 -16.984375 C 7.832031 -18.179688 9.03125 -19.019531 10.5 -19.5 C 9.03125 -19.976562 7.832031 -20.820312 6.90625 -22.03125 C 5.988281 -23.25 5.53125 -25 5.53125 -27.28125 L 5.53125 -36.296875 C 5.53125 -37.046875 5.398438 -37.753906 5.140625 -38.421875 C 4.890625 -39.085938 4.234375 -39.421875 3.171875 -39.421875 L 1.125 -39.421875 L 1.125 -44.640625 L 6.09375 -44.640625 C 8.238281 -44.640625 9.835938 -43.894531 10.890625 -42.40625 C 11.953125 -40.925781 12.484375 -38.941406 12.484375 -36.453125 L 12.484375 -27.4375 C 12.484375 -26.28125 12.660156 -25.375 13.015625 -24.71875 C 13.378906 -24.070312 13.851562 -23.585938 14.4375 -23.265625 C 15.019531 -22.941406 15.613281 -22.675781 16.21875 -22.46875 L 16.21875 -16.53125 C 15.613281 -16.320312 15.019531 -16.054688 14.4375 -15.734375 C 13.851562 -15.410156 13.378906 -14.929688 13.015625 -14.296875 C 12.660156 -13.671875 12.484375 -12.757812 12.484375 -11.5625 L 12.484375 -2.5625 C 12.484375 -0.0703125 11.953125 1.910156 10.890625 3.390625 C 9.835938 4.878906 8.238281 5.625 6.09375 5.625 Z M 6.09375 5.625 "/></g></g></g></g></g><g transform="matrix(1, 0, 0, 1, 106, 32)"><g clip-path="url(#ca36065f41)"><g clip-path="url(#eb8660cd94)"><g fill="#24afff" fill-opacity="1"><g transform="translate(0.0749658, 51.61017)"><g><path d="M 15.96875 5.625 L 11 5.625 C 8.851562 5.625 7.25 4.878906 6.1875 3.390625 C 5.132812 1.910156 4.609375 -0.0703125 4.609375 -2.5625 L 4.609375 -11.5625 C 4.609375 -12.757812 4.425781 -13.671875 4.0625 -14.296875 C 3.707031 -14.929688 3.25 -15.410156 2.6875 -15.734375 C 2.125 -16.054688 1.519531 -16.320312 0.875 -16.53125 L 0.875 -22.46875 C 1.519531 -22.675781 2.125 -22.941406 2.6875 -23.265625 C 3.25 -23.585938 3.707031 -24.070312 4.0625 -24.71875 C 4.425781 -25.375 4.609375 -26.28125 4.609375 -27.4375 L 4.609375 -36.453125 C 4.609375 -38.941406 5.132812 -40.925781 6.1875 -42.40625 C 7.25 -43.894531 8.851562 -44.640625 11 -44.640625 L 15.96875 -44.640625 L 15.96875 -39.421875 L 13.921875 -39.421875 C 12.867188 -39.421875 12.210938 -39.085938 11.953125 -38.421875 C 11.691406 -37.753906 11.5625 -37.046875 11.5625 -36.296875 L 11.5625 -27.28125 C 11.5625 -25 11.109375 -23.25 10.203125 -22.03125 C 9.304688 -20.820312 8.109375 -19.976562 6.609375 -19.5 C 8.109375 -19.019531 9.304688 -18.179688 10.203125 -16.984375 C 11.109375 -15.796875 11.5625 -14.039062 11.5625 -11.71875 L 11.5625 -2.71875 C 11.5625 -1.96875 11.691406 -1.257812 11.953125 -0.59375 C 12.210938 0.0703125 12.867188 0.40625 13.921875 0.40625 L 15.96875 0.40625 Z M 15.96875 5.625 "/></g></g></g></g></g></g><g clip-path="url(#d1cc27abd8)"><g transform="matrix(1, 0, 0, 1, 189, 15)"><g clip-path="url(#c13fb41771)"><g clip-path="url(#9cd38f1be2)"><path fill="#f6f5fa" d="M 7.085938 8.328125 C 7.21875 9.195312 7.371094 10.914062 7.550781 12.09375 C 7.855469 14.085938 7.964844 14.25 7.664062 15.40625 C 7.558594 15.8125 7.296875 16.449219 7.136719 16.839844 C 6.835938 17.582031 6.539062 18.320312 6.25 19.085938 C 5.824219 20.425781 5.957031 21.867188 5.933594 23.269531 C 5.929688 23.597656 5.902344 23.953125 5.6875 24.203125 C 5.5625 24.347656 5.390625 24.4375 5.21875 24.523438 C 4.730469 24.765625 4.230469 24.976562 3.714844 25.15625 C 3.613281 25.195312 3.496094 25.226562 3.402344 25.171875 C 3.335938 25.136719 3.300781 25.0625 3.269531 24.996094 C 3.175781 24.789062 3.078125 24.582031 2.984375 24.375 C 2.65625 24.433594 2.328125 24.488281 1.996094 24.460938 C 1.664062 24.429688 1.332031 24.300781 1.125 24.042969 C 0.878906 23.738281 0.863281 23.304688 0.957031 22.925781 C 1.050781 22.546875 1.242188 22.199219 1.386719 21.835938 C 1.714844 21.003906 1.777344 20.5 1.925781 19.617188 C 2.070312 18.734375 2.273438 17.875 2.886719 17.210938 C 3.179688 16.894531 3.53125 16.519531 4.039062 15.777344 C 4.773438 14.707031 5.351562 13.773438 5.777344 12.585938 C 6.253906 11.21875 6.539062 9.648438 7.085938 8.328125 Z M 7.085938 8.328125 " fill-opacity="1" fill-rule="nonzero"/></g><g clip-path="url(#56f2eb1318)"><path fill="#dfdfef" d="M 7.289062 9.816406 C 7.179688 10.492188 7.117188 11.175781 7.097656 11.863281 C 7.078125 12.625 7.113281 13.398438 6.957031 14.144531 C 6.46875 16.464844 4.242188 18.136719 3.710938 20.445312 C 3.539062 21.195312 3.558594 21.972656 3.601562 22.789062 C 3.511719 23.355469 3.539062 23.9375 3.691406 24.492188 C 3.800781 24.660156 3.910156 24.828125 4.019531 24.996094 C 3.769531 25.257812 3.226562 25.082031 3.191406 24.722656 C 3.179688 24.601562 3.195312 24.4375 3.082031 24.390625 C 2.988281 24.351562 2.886719 24.425781 2.789062 24.445312 C 2.582031 24.484375 2.398438 24.277344 2.371094 24.070312 C 2.34375 23.867188 2.421875 23.660156 2.453125 23.457031 C 2.542969 22.917969 2.332031 22.375 2.230469 21.835938 C 1.972656 20.464844 2.4375 19.039062 3.171875 17.84375 C 3.765625 16.875 4.535156 16.011719 5.097656 15.023438 C 6.148438 13.179688 6.433594 11.023438 6.699219 8.929688 C 6.914062 9.210938 7.125 9.492188 7.289062 9.816406 Z M 7.289062 9.816406 " fill-opacity="1" fill-rule="nonzero"/></g><path fill="#dfdfef" d="M 6.234375 19.300781 C 6.015625 19.234375 5.824219 19.460938 5.710938 19.65625 C 5.445312 20.117188 5.195312 20.601562 5.113281 21.125 C 4.960938 22.085938 5.382812 23.039062 5.792969 23.929688 C 5.957031 23.457031 5.914062 22.941406 5.898438 22.4375 C 5.867188 21.351562 5.988281 20.253906 6.234375 19.300781 Z M 6.234375 19.300781 " fill-opacity="1" fill-rule="nonzero"/><g clip-path="url(#02dd1f0776)"><path fill="#c3c3d6" d="M 0.773438 23.226562 C 0.835938 22.644531 1.164062 22.136719 1.363281 21.601562 C 1.488281 21.277344 1.535156 21.167969 1.613281 20.792969 C 1.675781 20.460938 1.699219 20.125 1.746094 19.789062 C 1.820312 19.242188 1.949219 18.703125 2.160156 18.191406 C 2.4375 17.515625 2.828125 16.890625 3.273438 16.308594 C 3.636719 15.832031 4.050781 15.394531 4.398438 14.90625 C 4.601562 14.632812 5.046875 13.867188 5.257812 13.398438 C 5.464844 12.957031 5.640625 12.5 5.789062 12.039062 C 5.964844 11.507812 6.285156 10.34375 6.480469 9.601562 C 6.492188 9.5625 6.5 9.527344 6.511719 9.488281 C 6.53125 9.273438 6.59375 9.066406 6.65625 8.859375 C 6.71875 8.652344 6.796875 8.453125 6.882812 8.257812 C 6.882812 8.253906 6.882812 8.25 6.886719 8.246094 C 6.921875 8.15625 6.957031 8.066406 7 7.980469 C 7.003906 7.964844 7.015625 7.953125 7.027344 7.945312 C 7.03125 7.941406 7.039062 7.9375 7.042969 7.933594 C 7.042969 7.929688 7.042969 7.925781 7.042969 7.921875 C 7.042969 7.867188 7.054688 7.8125 7.089844 7.769531 C 7.125 7.738281 7.175781 7.746094 7.207031 7.769531 C 7.320312 7.855469 7.363281 8.003906 7.363281 8.140625 C 7.382812 8.742188 7.390625 9.34375 7.429688 9.945312 C 7.460938 10.449219 7.460938 10.765625 7.554688 11.355469 C 7.648438 11.96875 7.761719 12.582031 7.863281 13.191406 C 7.9375 13.65625 8.003906 14.121094 7.984375 14.589844 C 7.964844 15.300781 7.71875 15.980469 7.484375 16.644531 C 7.105469 17.699219 6.539062 18.699219 6.332031 19.65625 C 6.128906 20.683594 6.058594 21.453125 6.097656 22.539062 C 6.105469 22.851562 6.113281 23.164062 6.121094 23.476562 C 6.128906 23.785156 6.101562 24.097656 5.851562 24.316406 C 5.488281 24.636719 5.042969 24.855469 4.589844 25.035156 C 4.273438 25.164062 3.957031 25.289062 3.628906 25.394531 C 3.238281 25.511719 3.046875 25.03125 2.953125 24.617188 C 2.902344 24.640625 2.847656 24.667969 2.789062 24.683594 C 2.699219 24.707031 2.601562 24.707031 2.507812 24.710938 C 2.183594 24.71875 1.84375 24.703125 1.546875 24.5625 C 1.011719 24.351562 0.726562 23.773438 0.773438 23.226562 Z M 3.332031 24.824219 C 3.335938 24.828125 3.335938 24.832031 3.339844 24.832031 C 3.34375 24.835938 3.347656 24.839844 3.347656 24.84375 C 3.394531 24.867188 3.460938 24.839844 3.628906 24.785156 C 3.878906 24.695312 4.128906 24.601562 4.375 24.5 C 4.773438 24.335938 5.027344 24.234375 5.332031 24.023438 C 5.472656 23.929688 5.613281 23.828125 5.71875 23.699219 C 5.78125 23.605469 5.796875 23.578125 5.796875 23.277344 C 5.789062 22.597656 5.746094 21.917969 5.773438 21.238281 C 5.804688 20.589844 5.898438 19.941406 6.023438 19.300781 C 6.171875 18.628906 6.460938 17.996094 6.734375 17.359375 C 6.996094 16.753906 7.285156 16.042969 7.421875 15.566406 C 7.621094 14.921875 7.691406 14.558594 7.65625 13.921875 C 7.601562 13.28125 7.304688 11.832031 7.191406 10.921875 C 7.125 10.261719 7.097656 9.601562 7.074219 8.941406 C 6.980469 9.214844 6.910156 9.5 6.828125 9.8125 C 6.808594 10.097656 6.820312 10.628906 6.804688 10.988281 C 6.769531 11.984375 6.71875 12.992188 6.476562 13.964844 C 6.339844 14.496094 6.128906 15.007812 5.914062 15.511719 C 5.714844 15.964844 5.511719 16.417969 5.28125 16.855469 C 4.886719 17.5625 4.425781 18.234375 4.015625 18.929688 C 3.777344 19.339844 3.507812 19.738281 3.316406 20.171875 C 3.207031 20.445312 3.175781 20.488281 3.132812 20.722656 C 3.128906 20.746094 3.128906 20.769531 3.128906 20.792969 C 3.167969 21.175781 3.261719 21.546875 3.300781 21.925781 C 3.347656 22.292969 3.34375 22.664062 3.28125 23.03125 C 3.214844 23.457031 3.179688 23.574219 3.179688 23.96875 C 3.171875 24.285156 3.277344 24.753906 3.332031 24.824219 Z M 1.214844 23.828125 C 1.59375 24.160156 2.101562 24.175781 2.59375 24.132812 C 2.6875 24.121094 2.765625 24.070312 2.847656 24.035156 C 2.855469 24.035156 2.863281 24.035156 2.867188 24.035156 C 2.84375 23.699219 2.863281 23.359375 2.917969 23.027344 C 3.023438 22.386719 3.042969 22.167969 2.941406 21.542969 C 2.894531 21.1875 2.785156 20.832031 2.8125 20.46875 C 2.855469 20.097656 3.027344 19.753906 3.1875 19.421875 C 3.660156 18.585938 4.175781 17.777344 4.683594 16.960938 C 4.996094 16.460938 5.253906 15.929688 5.492188 15.394531 C 5.707031 14.917969 5.984375 14.238281 6.082031 13.910156 C 6.246094 13.421875 6.351562 12.703125 6.375 12.402344 C 6.421875 11.980469 6.449219 11.5625 6.464844 11.140625 C 6.34375 11.574219 6.21875 12.003906 6.082031 12.433594 C 5.769531 13.410156 5.335938 14.351562 4.769531 15.210938 C 4.320312 15.882812 3.582031 16.65625 3.226562 17.195312 C 2.738281 17.90625 2.359375 18.664062 2.195312 19.375 C 2.105469 19.75 2.046875 20.136719 2.003906 20.519531 C 1.964844 20.941406 1.894531 21.359375 1.746094 21.757812 C 1.597656 22.191406 1.386719 22.605469 1.214844 23.035156 C 1.007812 23.5625 1.101562 23.695312 1.214844 23.828125 Z M 1.214844 23.828125 " fill-opacity="1" fill-rule="nonzero"/></g><g clip-path="url(#ab47719ede)"><path fill="#f6f5fa" d="M 5.601562 3.867188 C 6.648438 3.730469 7.742188 3.417969 8.820312 3.296875 C 10.316406 2.089844 11.84375 1.015625 13.738281 0.601562 C 14.960938 0.335938 16.242188 0.4375 17.484375 0.621094 C 19.667969 0.945312 21.953125 1.601562 23.386719 3.25 C 23.347656 3.042969 23.554688 2.851562 23.769531 2.828125 C 23.984375 2.808594 24.191406 2.90625 24.382812 3.007812 C 24.914062 3.296875 25.46875 3.730469 25.5 4.328125 C 26.128906 4.289062 26.613281 5.015625 26.636719 5.632812 C 26.65625 6.246094 26.378906 6.84375 26.480469 7.453125 C 26.550781 7.878906 26.769531 8.285156 26.769531 8.714844 C 26.765625 9.175781 26.515625 9.59375 26.414062 10.042969 C 26.300781 10.554688 26.375 11.121094 26.113281 11.578125 C 25.929688 11.894531 24.925781 12.253906 24.554688 12.277344 C 22.949219 12.382812 22.003906 12.238281 20.359375 12.003906 C 19.636719 11.902344 18.894531 11.878906 18.195312 11.667969 C 17.648438 11.503906 17.097656 11.382812 16.601562 11.109375 C 16.113281 10.84375 15.667969 10.617188 15.175781 10.347656 C 14.191406 11.21875 13.976562 11.042969 12.78125 11.605469 C 11.644531 12.144531 10.777344 12.238281 10.246094 12.308594 C 9.527344 12.402344 8.925781 12.457031 8.195312 12.410156 C 7.460938 12.363281 6.792969 12.296875 6.132812 11.980469 C 5.882812 11.863281 5.265625 11.246094 5.085938 11.035156 C 4.882812 10.792969 4.652344 10.558594 4.589844 10.25 C 4.4375 9.53125 4.449219 8.722656 4.296875 8.003906 C 4.207031 7.574219 4.117188 7.121094 4.261719 6.707031 C 4.378906 6.363281 4.644531 6.085938 4.78125 5.753906 C 4.917969 5.421875 4.921875 5.058594 4.996094 4.710938 C 5.070312 4.363281 5.226562 3.914062 5.601562 3.867188 Z M 5.601562 3.867188 " fill-opacity="1" fill-rule="nonzero"/></g><g clip-path="url(#9aa27323db)"><path fill="#dfdfef" d="M 5.933594 6.835938 C 6.277344 7.367188 6.867188 7.714844 7.484375 7.875 C 8.105469 8.039062 8.757812 8.035156 9.398438 7.988281 C 10.238281 7.929688 11.074219 7.800781 11.894531 7.605469 C 12.789062 7.390625 13.671875 7.09375 14.59375 7.066406 C 15.253906 7.046875 15.910156 7.171875 16.558594 7.292969 C 16.296875 7.480469 15.992188 7.597656 15.6875 7.710938 C 14.03125 8.328125 12.335938 8.835938 10.613281 9.238281 C 9.617188 9.46875 8.570312 9.664062 7.574219 9.433594 C 7.125 9.328125 6.703125 9.140625 6.269531 8.996094 C 5.589844 8.769531 4.792969 8.578125 4.464844 7.957031 C 4.230469 7.515625 4.308594 6.976562 4.46875 6.503906 C 4.667969 5.917969 4.988281 5.359375 5.035156 4.742188 C 5.039062 4.671875 5.039062 4.597656 5.070312 4.527344 C 5.105469 4.457031 5.167969 4.40625 5.230469 4.355469 C 5.613281 4.039062 6.054688 3.703125 6.554688 3.742188 C 6.457031 3.921875 6.34375 4.097656 6.21875 4.273438 C 6.265625 4.242188 6.320312 4.214844 6.375 4.199219 C 6.558594 4.148438 6.757812 4.195312 6.949219 4.210938 C 7.601562 4.253906 8.199219 3.867188 8.671875 3.425781 C 8.605469 3.660156 8.410156 3.960938 8.460938 4.277344 C 8.46875 4.339844 8.484375 4.410156 8.441406 4.457031 C 8.421875 4.480469 8.390625 4.492188 8.359375 4.5 C 7.714844 4.699219 7.070312 4.886719 6.421875 5.066406 C 6.425781 5.078125 6.429688 5.09375 6.433594 5.105469 C 7.476562 4.726562 8.609375 4.660156 9.722656 4.601562 C 10.710938 4.546875 11.703125 4.488281 12.691406 4.503906 C 13.757812 4.515625 14.824219 4.609375 15.894531 4.585938 C 16.929688 4.566406 17.976562 4.425781 18.921875 4.019531 C 18.117188 3.914062 17.3125 3.785156 16.511719 3.652344 C 15.730469 3.519531 14.941406 3.382812 14.148438 3.398438 C 13.429688 3.410156 12.601562 3.839844 11.894531 3.976562 C 10.699219 4.214844 9.617188 4.167969 8.441406 4.492188 C 8.722656 3.667969 9.332031 2.976562 10.042969 2.453125 C 10.753906 1.925781 11.828125 1.109375 12.535156 0.9375 C 12.578125 0.925781 12.546875 1.253906 12.53125 1.332031 C 12.449219 1.742188 12.527344 2.230469 12.878906 2.472656 C 13.199219 2.691406 13.632812 2.640625 14.023438 2.59375 C 15.472656 2.414062 16.96875 2.421875 18.371094 2.835938 C 19.066406 3.042969 19.730469 3.34375 20.433594 3.539062 C 20.9375 3.683594 21.460938 3.765625 21.988281 3.792969 C 21.957031 3.761719 21.929688 3.730469 21.902344 3.703125 C 21.394531 3.195312 20.632812 2.992188 20.132812 2.480469 C 20.121094 2.46875 20.105469 2.457031 20.105469 2.4375 C 20.097656 2.394531 20.152344 2.375 20.195312 2.371094 C 20.714844 2.308594 21.34375 2.230469 21.726562 2.570312 C 22.167969 2.964844 22.878906 2.882812 23.386719 3.175781 C 23.453125 3.066406 23.546875 2.980469 23.699219 2.957031 C 23.558594 3.113281 23.597656 3.359375 23.667969 3.554688 C 23.742188 3.753906 23.84375 3.957031 23.804688 4.164062 C 23.777344 4.292969 23.699219 4.402344 23.621094 4.507812 C 23.503906 4.667969 23.386719 4.820312 23.269531 4.976562 C 23.1875 5.082031 23.101562 5.1875 22.996094 5.269531 C 22.855469 5.375 22.6875 5.429688 22.527344 5.496094 C 22.1875 5.632812 21.863281 5.804688 21.515625 5.925781 C 21.164062 6.050781 20.792969 6.121094 20.425781 6.1875 C 20.191406 6.230469 19.957031 6.273438 19.722656 6.316406 C 19.390625 7.058594 18.804688 7.671875 18.140625 8.160156 C 17.472656 8.644531 16.730469 9.015625 15.988281 9.382812 C 15.105469 9.824219 14.222656 10.261719 13.335938 10.699219 C 12.375 11.175781 11.390625 11.660156 10.324219 11.792969 C 9.269531 11.921875 8.207031 11.699219 7.171875 11.476562 C 6.375 11.308594 5.519531 11.105469 4.949219 10.546875 C 4.945312 10.753906 5.015625 10.960938 5.15625 11.117188 C 4.929688 11.042969 4.777344 10.824219 4.714844 10.601562 C 4.652344 10.375 4.664062 10.140625 4.664062 9.90625 C 4.664062 9.464844 4.625 9.027344 4.53125 8.496094 C 4.683594 8.792969 4.847656 9.097656 5.09375 9.328125 C 5.136719 9.375 5.1875 9.414062 5.222656 9.46875 C 5.292969 9.585938 5.269531 9.734375 5.214844 9.863281 C 5.160156 9.988281 5.074219 10.097656 5.019531 10.222656 C 4.996094 10.269531 4.980469 10.324219 4.96875 10.375 C 5.199219 10.351562 5.417969 10.332031 5.550781 10.34375 C 7.140625 10.285156 8.75 10.789062 10.3125 10.5 C 11.148438 10.34375 11.925781 9.972656 12.691406 9.601562 C 13.289062 9.316406 13.886719 9.027344 14.480469 8.738281 C 14.941406 8.515625 15.398438 8.292969 15.847656 8.058594 C 16.289062 7.824219 16.722656 7.574219 17.167969 7.34375 C 17.976562 6.929688 18.824219 6.585938 19.695312 6.320312 C 18.609375 6.511719 17.515625 6.652344 16.421875 6.539062 C 17.941406 6.296875 19.449219 5.988281 20.941406 5.605469 C 21.230469 5.53125 21.523438 5.453125 21.789062 5.316406 C 22.414062 5.003906 22.84375 4.421875 23.128906 3.785156 C 23.082031 3.804688 23.03125 3.820312 22.984375 3.832031 C 22.941406 3.839844 22.898438 3.851562 22.859375 3.863281 C 22.554688 3.972656 22.25 4.050781 21.949219 4.101562 C 22.234375 4.113281 22.523438 4.140625 22.820312 4.183594 C 22.636719 4.378906 22.433594 4.589844 22.164062 4.640625 C 21.984375 4.675781 21.800781 4.632812 21.617188 4.628906 C 21.445312 4.625 21.273438 4.65625 21.101562 4.683594 C 20.4375 4.785156 19.761719 4.824219 19.089844 4.792969 C 19.355469 4.632812 19.621094 4.472656 19.886719 4.3125 C 19.980469 4.257812 20.074219 4.199219 20.179688 4.167969 C 20.1875 4.164062 20.199219 4.160156 20.207031 4.15625 C 19.933594 4.136719 19.660156 4.109375 19.390625 4.074219 C 19.34375 4.070312 19.296875 4.0625 19.25 4.058594 C 19.410156 4.109375 19.613281 4.167969 19.816406 4.226562 C 19.425781 4.566406 18.882812 4.65625 18.367188 4.730469 C 17.554688 4.851562 16.738281 4.972656 15.914062 4.96875 C 14.75 4.960938 13.585938 4.699219 12.421875 4.78125 C 11.363281 4.859375 10.339844 5.21875 9.28125 5.3125 C 8.332031 5.394531 7.378906 5.261719 6.4375 5.125 C 6.492188 5.351562 6.375 5.632812 6.511719 5.828125 C 6.574219 5.917969 6.675781 5.972656 6.777344 6.019531 C 8.410156 6.785156 10.3125 6.558594 12.117188 6.675781 C 11.628906 6.75 11.136719 6.824219 10.648438 6.898438 C 10.199219 6.964844 9.75 7.035156 9.292969 7.058594 C 8.707031 7.085938 8.121094 7.042969 7.546875 6.925781 C 7.210938 6.855469 6.878906 6.761719 6.578125 6.601562 C 6.191406 6.394531 5.871094 6.085938 5.566406 5.769531 C 5.570312 5.800781 5.574219 5.828125 5.578125 5.855469 C 5.636719 6.199219 5.746094 6.539062 5.933594 6.835938 Z M 5.933594 6.835938 " fill-opacity="1" fill-rule="nonzero"/></g><path fill="#dfdfef" d="M 15.988281 9.824219 C 16.46875 9.617188 16.898438 9.320312 17.34375 9.050781 C 18.152344 8.566406 19.011719 8.171875 19.875 7.78125 C 20.316406 7.582031 20.761719 7.378906 21.203125 7.179688 C 22.839844 6.433594 24.550781 5.628906 25.59375 4.1875 C 25.679688 4.261719 25.765625 4.335938 25.867188 4.460938 C 25.679688 4.90625 25.484375 5.359375 25.144531 5.710938 C 24.84375 6.019531 24.449219 6.222656 24.0625 6.425781 C 23.390625 6.769531 22.722656 7.113281 22.050781 7.460938 C 21.664062 7.660156 21.273438 7.859375 20.863281 8.019531 C 20.550781 8.136719 20.226562 8.230469 19.914062 8.363281 C 19.636719 8.484375 19.375 8.636719 19.113281 8.789062 C 18.296875 9.269531 17.476562 9.746094 16.660156 10.222656 C 16.441406 10.351562 16.21875 10.480469 15.96875 10.523438 C 15.71875 10.566406 15.4375 10.507812 15.277344 10.316406 C 15.40625 10.054688 15.71875 9.945312 15.988281 9.824219 Z M 15.988281 9.824219 " fill-opacity="1" fill-rule="nonzero"/><g clip-path="url(#5b86531624)"><path fill="#dfdfef" d="M 21.335938 9.132812 C 21.554688 9 21.785156 8.902344 22.019531 8.804688 C 22.636719 8.550781 23.261719 8.328125 23.898438 8.132812 C 24.175781 8.046875 24.460938 7.964844 24.71875 7.832031 C 25.070312 7.648438 25.359375 7.371094 25.636719 7.097656 C 25.964844 6.777344 26.289062 6.457031 26.609375 6.128906 C 26.546875 6.398438 26.480469 6.671875 26.515625 7.058594 C 26.101562 7.460938 25.6875 7.859375 25.269531 8.261719 C 25.09375 8.433594 24.910156 8.605469 24.699219 8.730469 C 24.320312 8.949219 23.875 9 23.449219 9.097656 C 22.542969 9.300781 21.691406 9.734375 20.996094 10.339844 C 20.8125 10.503906 20.636719 10.675781 20.433594 10.8125 C 20.195312 10.96875 19.921875 11.066406 19.652344 11.164062 C 19.253906 11.308594 18.855469 11.449219 18.457031 11.59375 C 18.382812 11.621094 18.308594 11.648438 18.234375 11.640625 C 18.167969 11.636719 18.109375 11.605469 18.050781 11.578125 C 17.800781 11.457031 17.550781 11.339844 17.304688 11.21875 C 18.042969 10.8125 18.957031 10.796875 19.699219 10.386719 C 20.304688 10.054688 20.746094 9.488281 21.335938 9.132812 Z M 21.335938 9.132812 " fill-opacity="1" fill-rule="nonzero"/></g><g clip-path="url(#464ed14536)"><path fill="#dfdfef" d="M 22.230469 11.628906 C 22.523438 11.492188 22.753906 11.257812 23.03125 11.089844 C 23.300781 10.925781 23.609375 10.828125 23.890625 10.679688 C 24.238281 10.496094 24.539062 10.246094 24.835938 9.988281 C 25.460938 9.441406 26.058594 8.855469 26.617188 8.242188 C 26.730469 8.386719 26.777344 8.582031 26.761719 8.789062 C 26.523438 9.066406 26.285156 9.34375 26.046875 9.625 C 25.804688 9.90625 25.5625 10.1875 25.28125 10.433594 C 24.898438 10.765625 24.453125 11.019531 24.039062 11.316406 C 23.671875 11.582031 23.320312 11.882812 22.898438 12.050781 C 22.417969 12.242188 21.863281 12.242188 21.386719 12.058594 C 21.582031 11.808594 21.9375 11.761719 22.230469 11.628906 Z M 22.230469 11.628906 " fill-opacity="1" fill-rule="nonzero"/></g><g clip-path="url(#f72ff78241)"><path fill="#c3c3d6" d="M 4.203125 6.636719 C 4.417969 6.160156 4.582031 5.902344 4.683594 5.464844 C 4.804688 4.960938 4.835938 4.40625 5.175781 3.984375 C 5.554688 3.457031 6.019531 3.410156 6.628906 3.375 C 7.101562 3.328125 7.566406 3.242188 8.027344 3.144531 C 8.132812 3.125 8.589844 3.050781 8.898438 3.027344 C 8.898438 3.023438 8.902344 3.023438 8.902344 3.019531 C 9.128906 2.789062 9.390625 2.59375 9.636719 2.382812 C 10.128906 1.945312 10.667969 1.5625 11.226562 1.207031 C 11.679688 0.894531 12.195312 0.6875 12.726562 0.535156 C 13.179688 0.394531 13.640625 0.28125 14.113281 0.21875 C 14.582031 0.15625 15.058594 0.167969 15.53125 0.183594 C 16.070312 0.210938 16.609375 0.253906 17.144531 0.324219 C 17.902344 0.4375 18.652344 0.585938 19.390625 0.777344 C 20.460938 1.082031 21.515625 1.507812 22.414062 2.171875 C 22.714844 2.410156 23.066406 2.617188 23.277344 2.941406 C 23.292969 2.84375 23.320312 2.742188 23.398438 2.675781 C 23.683594 2.476562 24.085938 2.609375 24.371094 2.742188 C 24.78125 2.933594 25.609375 3.632812 25.644531 3.972656 C 26.257812 4.289062 26.742188 5.066406 26.796875 5.710938 C 26.832031 6.3125 26.648438 6.867188 26.617188 7.304688 C 26.601562 7.53125 26.632812 7.726562 26.699219 7.921875 C 26.816406 8.285156 26.96875 8.65625 26.929688 9.042969 C 26.890625 9.4375 26.734375 9.804688 26.648438 10.191406 C 26.566406 10.503906 26.519531 10.828125 26.46875 11.148438 C 26.429688 11.382812 26.390625 11.625 26.261719 11.828125 C 25.855469 12.476562 24.5 12.566406 23.785156 12.59375 C 23 12.621094 22.210938 12.578125 21.429688 12.503906 C 20.742188 12.4375 20.058594 12.355469 19.378906 12.210938 C 18.289062 11.988281 17.242188 11.605469 16.226562 11.160156 C 16.007812 11.066406 15.796875 10.957031 15.585938 10.855469 C 15.433594 10.777344 15.335938 10.734375 15.175781 10.65625 C 14.839844 10.882812 14.589844 11.074219 14.238281 11.277344 C 13.152344 11.921875 11.96875 12.480469 10.6875 12.589844 C 10.15625 12.640625 9.621094 12.667969 9.085938 12.679688 C 8.679688 12.691406 8.277344 12.691406 7.871094 12.65625 C 7.296875 12.609375 6.714844 12.554688 6.207031 12.265625 C 5.828125 12.0625 5.5 11.777344 5.1875 11.488281 C 4.882812 11.226562 4.628906 10.902344 4.535156 10.507812 C 4.378906 9.933594 4.46875 9.320312 4.34375 8.902344 C 4.1875 8.375 3.867188 7.371094 4.203125 6.636719 Z M 8.246094 3.691406 C 7.820312 3.78125 7.628906 3.820312 7.195312 3.875 C 7.023438 4.054688 6.894531 4.171875 6.714844 4.289062 C 6.511719 4.414062 6.308594 4.539062 6.128906 4.695312 C 6.027344 4.785156 5.949219 4.863281 5.878906 4.933594 C 5.882812 4.933594 5.882812 4.933594 5.886719 4.933594 C 5.90625 4.925781 5.929688 4.917969 5.953125 4.90625 C 6.425781 4.722656 6.914062 4.570312 7.414062 4.472656 C 7.695312 4.417969 7.972656 4.367188 8.253906 4.328125 C 8.128906 4.046875 8.359375 3.683594 8.375 3.667969 C 8.332031 3.675781 8.289062 3.683594 8.246094 3.691406 Z M 18.371094 5.042969 C 17.679688 5.167969 16.984375 5.292969 16.28125 5.316406 C 15.832031 5.328125 15.378906 5.328125 14.929688 5.289062 C 14.179688 5.214844 13.523438 5.148438 12.851562 5.148438 C 12.410156 5.148438 11.964844 5.167969 11.53125 5.246094 C 10.707031 5.394531 9.894531 5.632812 9.054688 5.699219 C 8.304688 5.757812 7.546875 5.699219 6.796875 5.617188 C 6.574219 5.589844 6.347656 5.5625 6.125 5.523438 C 6.082031 5.519531 6.042969 5.511719 6 5.503906 C 5.933594 5.53125 5.863281 5.558594 5.792969 5.589844 C 5.769531 5.601562 5.746094 5.613281 5.71875 5.625 C 5.835938 5.785156 5.949219 5.910156 6.09375 6.023438 C 6.488281 6.34375 6.734375 6.496094 7.183594 6.640625 C 7.78125 6.832031 8.214844 6.789062 8.832031 6.789062 C 9.972656 6.789062 11.101562 6.625 12.226562 6.46875 C 13.261719 6.3125 14.316406 6.367188 15.355469 6.253906 C 15.761719 6.210938 16.167969 6.164062 16.574219 6.132812 C 16.9375 6.101562 17.304688 6.082031 17.667969 6.027344 C 18.359375 5.914062 19.046875 5.753906 19.726562 5.589844 C 20.511719 5.390625 21.273438 5.121094 22.003906 4.785156 C 22.195312 4.695312 22.226562 4.691406 22.421875 4.550781 C 22.511719 4.472656 22.589844 4.386719 22.667969 4.296875 C 22.300781 4.363281 21.898438 4.390625 21.695312 4.417969 C 21.335938 4.46875 20.976562 4.488281 20.617188 4.480469 C 19.839844 4.679688 18.90625 4.953125 18.371094 5.042969 Z M 19.171875 4.308594 C 18.839844 4.234375 18.507812 4.144531 18.171875 4.070312 C 16.957031 3.78125 15.894531 3.671875 14.6875 3.761719 C 14.203125 3.792969 13.722656 3.867188 13.242188 3.960938 C 12.582031 4.082031 11.917969 4.210938 11.261719 4.378906 C 10.503906 4.542969 9.746094 4.753906 8.964844 4.773438 C 8.953125 4.796875 7.789062 4.972656 7.246094 5.101562 C 8.007812 5.171875 8.710938 5.191406 9.53125 5.058594 C 10.175781 4.964844 10.804688 4.78125 11.445312 4.671875 C 11.824219 4.609375 12.207031 4.585938 12.59375 4.585938 C 13.171875 4.582031 13.75 4.617188 14.324219 4.671875 C 14.960938 4.738281 15.394531 4.773438 16.03125 4.753906 C 16.621094 4.742188 17.207031 4.660156 17.785156 4.558594 C 18.246094 4.472656 18.710938 4.394531 19.171875 4.308594 Z M 22.410156 2.71875 C 21.796875 2.265625 21.316406 2.023438 20.636719 1.746094 C 19.90625 1.449219 19.144531 1.246094 18.371094 1.101562 C 17.472656 0.898438 16.324219 0.769531 15.546875 0.746094 C 15 0.726562 14.445312 0.730469 13.90625 0.835938 C 13.546875 0.902344 13.199219 0.996094 12.851562 1.105469 C 12.550781 1.195312 12.25 1.289062 11.964844 1.425781 C 11.5625 1.617188 10.945312 2.042969 10.476562 2.386719 C 10.058594 2.710938 9.621094 3.085938 9.21875 3.433594 C 8.984375 3.65625 8.671875 4.148438 8.652344 4.210938 C 8.765625 4.214844 8.878906 4.207031 9.050781 4.199219 C 9.445312 4.171875 9.832031 4.105469 10.214844 4.019531 C 10.808594 3.898438 11.390625 3.75 11.976562 3.617188 C 12.65625 3.484375 13.335938 3.339844 14.019531 3.25 C 15.03125 3.132812 16.066406 3.132812 17.074219 3.300781 C 17.582031 3.382812 18.082031 3.5 18.582031 3.617188 C 18.960938 3.710938 19.335938 3.808594 19.722656 3.855469 C 20.382812 3.945312 20.945312 3.9375 21.664062 3.84375 C 22.023438 3.804688 22.390625 3.773438 22.746094 3.683594 C 23.003906 3.617188 23.089844 3.601562 23.167969 3.453125 C 23.175781 3.433594 22.714844 2.9375 22.410156 2.71875 Z M 25.546875 11.710938 C 25.769531 11.613281 25.984375 11.492188 26.082031 11.226562 C 26.144531 11.070312 26.230469 10.421875 26.300781 10.070312 C 26.386719 9.605469 26.613281 9.039062 26.621094 8.75 C 26.621094 8.726562 26.621094 8.714844 26.621094 8.714844 C 26.617188 8.671875 26.609375 8.625 26.59375 8.570312 C 26.574219 8.601562 26.554688 8.632812 26.53125 8.664062 C 26.375 8.902344 26.199219 9.128906 26.011719 9.34375 C 25.652344 9.738281 25.253906 10.105469 24.835938 10.441406 C 24.390625 10.773438 23.933594 11.09375 23.453125 11.371094 C 23.035156 11.601562 22.605469 11.804688 22.171875 12 C 23.199219 12.058594 24.5625 12.09375 25.546875 11.710938 Z M 19.1875 11.617188 C 20.027344 11.800781 20.316406 11.820312 21.171875 11.890625 C 21.339844 11.792969 22.863281 11.105469 23.511719 10.691406 C 24.121094 10.296875 24.722656 9.890625 25.242188 9.390625 C 25.527344 9.136719 25.917969 8.714844 26.050781 8.53125 C 26.1875 8.335938 26.34375 8.117188 26.398438 7.996094 C 26.410156 7.992188 26.332031 7.699219 26.3125 7.511719 C 26.277344 7.21875 26.316406 6.921875 26.367188 6.628906 C 25.980469 7.265625 25.394531 7.78125 24.757812 8.164062 C 24.53125 8.296875 24.265625 8.347656 24.019531 8.433594 C 23.453125 8.628906 22.886719 8.808594 22.328125 9.023438 C 21.953125 9.1875 21.6875 9.308594 21.320312 9.585938 C 20.933594 9.886719 20.613281 10.261719 20.203125 10.53125 C 19.917969 10.710938 19.601562 10.835938 19.289062 10.949219 C 18.929688 11.082031 18.566406 11.203125 18.191406 11.28125 C 18.144531 11.292969 18.097656 11.304688 18.054688 11.3125 C 18.425781 11.429688 18.804688 11.535156 19.1875 11.617188 Z M 16.625 10.785156 C 16.738281 10.832031 16.855469 10.878906 16.972656 10.925781 C 17.351562 10.835938 18.1875 10.691406 18.496094 10.601562 C 18.753906 10.527344 19.007812 10.4375 19.261719 10.34375 C 19.664062 10.191406 19.875 10.109375 20.207031 9.851562 C 20.566406 9.5625 20.882812 9.21875 21.261719 8.953125 C 21.992188 8.449219 22.863281 8.230469 23.6875 7.929688 C 23.960938 7.828125 24.257812 7.773438 24.523438 7.652344 C 24.75 7.546875 25.253906 7.160156 25.535156 6.886719 C 25.878906 6.542969 26.09375 6.261719 26.320312 5.769531 C 26.335938 5.734375 26.40625 5.601562 26.46875 5.492188 C 26.460938 5.460938 26.453125 5.425781 26.445312 5.386719 C 26.417969 5.277344 26.273438 4.933594 26.042969 4.765625 C 25.980469 4.71875 25.917969 4.675781 25.851562 4.636719 C 25.808594 4.617188 25.683594 4.542969 25.578125 4.464844 C 25.480469 4.769531 25.289062 5.042969 25.074219 5.285156 C 24.875 5.515625 24.644531 5.71875 24.390625 5.894531 C 24.125 6.078125 23.832031 6.230469 23.550781 6.398438 C 23.054688 6.691406 22.558594 6.980469 22.035156 7.21875 C 21.257812 7.585938 20.296875 7.957031 19.65625 8.296875 C 18.933594 8.679688 18.234375 9.019531 17.597656 9.351562 C 17.214844 9.558594 16.835938 9.773438 16.449219 9.964844 C 16.175781 10.105469 15.867188 10.242188 15.65625 10.347656 C 15.972656 10.503906 16.292969 10.65625 16.625 10.785156 Z M 4.675781 9.027344 C 4.753906 9.410156 4.742188 10.085938 4.785156 10.261719 C 4.855469 10.605469 4.917969 10.675781 5.28125 11.011719 C 5.542969 11.257812 5.820312 11.492188 6.128906 11.675781 C 6.277344 11.761719 6.550781 11.894531 6.835938 11.960938 C 7.09375 12.023438 7.359375 12.046875 7.625 12.070312 C 8.398438 12.152344 9.222656 12.109375 10.09375 12.058594 C 10.585938 12.027344 11.078125 11.972656 11.554688 11.847656 C 11.964844 11.75 12.355469 11.59375 12.738281 11.425781 C 13.320312 11.171875 13.816406 10.902344 14.398438 10.523438 C 14.695312 10.328125 14.976562 10.109375 15.28125 9.921875 C 15.511719 9.78125 15.765625 9.671875 16.011719 9.554688 C 16.507812 9.324219 17 9.035156 17.566406 8.738281 C 18.34375 8.351562 19.046875 7.972656 19.882812 7.554688 C 20.757812 7.15625 21.730469 6.769531 22.472656 6.375 C 22.871094 6.160156 23.257812 5.925781 23.652344 5.699219 C 24.128906 5.4375 24.582031 5.121094 24.925781 4.703125 C 25.027344 4.582031 25.234375 4.296875 25.296875 4.085938 C 25.273438 4.050781 25.246094 4.015625 25.234375 4.003906 C 24.902344 3.605469 24.621094 3.347656 24.113281 3.1875 C 23.902344 3.136719 23.890625 3.136719 23.714844 3.15625 C 23.609375 3.191406 23.636719 3.167969 23.589844 3.214844 C 23.585938 3.226562 23.585938 3.234375 23.582031 3.242188 C 23.574219 3.3125 23.355469 4.207031 23.042969 4.601562 C 22.910156 4.773438 22.777344 4.953125 22.605469 5.089844 C 22.375 5.261719 22.097656 5.359375 21.839844 5.476562 C 21.511719 5.621094 21.183594 5.753906 20.84375 5.867188 C 19.828125 6.1875 18.785156 6.429688 17.734375 6.601562 C 16.980469 6.695312 16.210938 6.730469 15.445312 6.824219 C 14.449219 6.929688 13.441406 6.878906 12.449219 7.023438 C 11.261719 7.1875 10.074219 7.363281 8.875 7.359375 C 8.25 7.367188 7.609375 7.378906 7.027344 7.132812 C 6.390625 6.871094 5.8125 6.429688 5.453125 5.84375 C 5.355469 5.699219 5.238281 5.558594 5.203125 5.386719 C 5.136719 5.121094 5.296875 4.882812 5.457031 4.683594 C 5.578125 4.515625 5.714844 4.355469 5.871094 4.222656 C 5.953125 4.140625 6.046875 4.070312 6.136719 4.007812 C 5.859375 4.0625 5.648438 4.167969 5.441406 4.429688 C 5.066406 4.867188 5.117188 5.425781 4.921875 6.042969 C 4.8125 6.390625 4.632812 6.710938 4.480469 7.042969 C 4.476562 7.058594 4.417969 7.148438 4.429688 7.160156 C 4.476562 7.207031 4.832031 7.484375 5.214844 7.695312 C 5.5 7.851562 5.578125 7.898438 5.863281 8.027344 C 6.476562 8.300781 7.125 8.5 7.796875 8.574219 C 8.355469 8.644531 8.796875 8.660156 9.40625 8.605469 C 9.832031 8.558594 10.246094 8.453125 10.660156 8.335938 C 13.78125 7.441406 14.457031 7.453125 15.964844 7.417969 C 15.171875 7.726562 13.390625 8.082031 13.117188 8.152344 C 12.261719 8.371094 11.449219 8.730469 10.597656 8.957031 C 9.472656 9.292969 8.269531 9.261719 7.128906 9.015625 C 6.324219 8.820312 5.570312 8.464844 4.871094 8.035156 C 4.757812 7.96875 4.652344 7.890625 4.550781 7.808594 C 4.476562 7.75 4.402344 7.6875 4.371094 7.59375 C 4.386719 8.144531 4.539062 8.414062 4.675781 9.027344 Z M 4.675781 9.027344 " fill-opacity="1" fill-rule="nonzero"/></g><path fill="#c3c3d6" d="M 10.421875 10.800781 C 10.800781 10.761719 11.199219 10.765625 11.550781 10.613281 C 12.125 10.34375 12.871094 9.859375 13.582031 9.554688 C 14.308594 9.234375 14.847656 8.992188 15.515625 8.589844 C 16.214844 8.171875 16.890625 7.808594 17.605469 7.414062 C 18.140625 7.117188 19.273438 6.664062 19.273438 6.664062 C 19.273438 6.664062 17.945312 7.71875 17.589844 7.945312 C 17.160156 8.214844 16.734375 8.488281 16.308594 8.757812 C 15.78125 9.089844 15.242188 9.40625 14.679688 9.679688 C 14.1875 9.917969 13.679688 10.121094 13.191406 10.367188 C 13.0625 10.433594 12.523438 10.730469 12.261719 10.878906 C 11.9375 11.058594 11.605469 11.261719 11.226562 11.300781 C 10.253906 11.429688 9.265625 11.4375 8.289062 11.347656 C 7.324219 11.261719 5.742188 10.640625 5.699219 10.585938 C 7.101562 10.652344 8.558594 10.929688 10.421875 10.800781 Z M 10.421875 10.800781 " fill-opacity="1" fill-rule="nonzero"/></g></g></g><g clip-path="url(#7d56e38b17)"><path fill="#021622" d="M 276.007812 171.113281 C 275.617188 170.730469 275.25 170.324219 274.902344 169.90625 C 274.554688 169.484375 274.226562 169.046875 273.921875 168.59375 C 273.617188 168.140625 273.335938 167.671875 273.078125 167.191406 C 272.816406 166.707031 272.582031 166.214844 272.371094 165.710938 C 272.164062 165.207031 271.976562 164.691406 271.816406 164.171875 C 271.660156 163.648438 271.527344 163.117188 271.417969 162.582031 C 271.3125 162.046875 271.230469 161.507812 271.175781 160.960938 C 271.121094 160.417969 271.097656 159.875 271.097656 159.328125 C 271.097656 158.78125 271.121094 158.234375 271.175781 157.691406 C 271.230469 157.148438 271.3125 156.609375 271.417969 156.070312 C 271.527344 155.535156 271.660156 155.007812 271.816406 154.484375 C 271.976562 153.960938 272.164062 153.445312 272.371094 152.941406 C 272.582031 152.4375 272.816406 151.945312 273.078125 151.464844 C 273.335938 150.984375 273.617188 150.515625 273.921875 150.0625 C 274.226562 149.609375 274.554688 149.171875 274.902344 148.75 C 275.25 148.328125 275.617188 147.925781 276.007812 147.539062 L 330.789062 92.921875 L 276.007812 38.304688 C 275.617188 37.921875 275.25 37.515625 274.902344 37.097656 C 274.554688 36.675781 274.226562 36.238281 273.921875 35.785156 C 273.617188 35.332031 273.335938 34.863281 273.078125 34.382812 C 272.816406 33.898438 272.582031 33.40625 272.371094 32.902344 C 272.164062 32.398438 271.976562 31.882812 271.816406 31.363281 C 271.660156 30.839844 271.527344 30.308594 271.417969 29.773438 C 271.3125 29.238281 271.230469 28.699219 271.175781 28.152344 C 271.121094 27.609375 271.097656 27.066406 271.097656 26.519531 C 271.097656 25.972656 271.121094 25.425781 271.175781 24.882812 C 271.230469 24.339844 271.3125 23.800781 271.417969 23.261719 C 271.527344 22.726562 271.660156 22.199219 271.816406 21.675781 C 271.976562 21.152344 272.164062 20.636719 272.371094 20.132812 C 272.582031 19.628906 272.816406 19.136719 273.078125 18.65625 C 273.335938 18.175781 273.617188 17.707031 273.921875 17.253906 C 274.226562 16.800781 274.554688 16.363281 274.902344 15.941406 C 275.25 15.519531 275.617188 15.117188 276.007812 14.730469 C 276.390625 14.34375 276.792969 13.976562 277.214844 13.628906 C 277.636719 13.277344 278.074219 12.953125 278.527344 12.648438 C 278.980469 12.34375 279.449219 12.058594 279.929688 11.800781 C 280.410156 11.542969 280.90625 11.308594 281.410156 11.097656 C 281.914062 10.886719 282.425781 10.703125 282.949219 10.542969 C 283.472656 10.382812 284 10.25 284.539062 10.144531 C 285.074219 10.035156 285.613281 9.957031 286.15625 9.902344 C 286.703125 9.847656 287.246094 9.820312 287.792969 9.820312 C 288.339844 9.820312 288.886719 9.847656 289.429688 9.902344 C 289.972656 9.957031 290.511719 10.035156 291.046875 10.144531 C 291.585938 10.25 292.113281 10.382812 292.636719 10.542969 C 293.160156 10.703125 293.671875 10.886719 294.175781 11.097656 C 294.683594 11.308594 295.175781 11.542969 295.65625 11.800781 C 296.136719 12.058594 296.605469 12.34375 297.058594 12.648438 C 297.511719 12.953125 297.949219 13.277344 298.371094 13.628906 C 298.792969 13.976562 299.195312 14.34375 299.578125 14.730469 L 365.984375 81.136719 C 366.371094 81.519531 366.742188 81.925781 367.089844 82.34375 C 367.4375 82.765625 367.761719 83.203125 368.070312 83.65625 C 368.375 84.109375 368.65625 84.578125 368.914062 85.058594 C 369.171875 85.539062 369.40625 86.035156 369.617188 86.539062 C 369.828125 87.042969 370.011719 87.554688 370.171875 88.078125 C 370.332031 88.601562 370.464844 89.132812 370.574219 89.667969 C 370.679688 90.203125 370.761719 90.742188 370.8125 91.285156 C 370.867188 91.832031 370.894531 92.375 370.894531 92.921875 C 370.894531 93.46875 370.867188 94.015625 370.8125 94.558594 C 370.761719 95.101562 370.679688 95.640625 370.574219 96.179688 C 370.464844 96.714844 370.332031 97.242188 370.171875 97.765625 C 370.011719 98.289062 369.828125 98.800781 369.617188 99.308594 C 369.40625 99.8125 369.171875 100.304688 368.914062 100.785156 C 368.65625 101.265625 368.375 101.734375 368.070312 102.1875 C 367.761719 102.640625 367.4375 103.078125 367.089844 103.5 C 366.742188 103.921875 366.371094 104.324219 365.984375 104.710938 L 299.578125 171.113281 C 299.195312 171.5 298.792969 171.871094 298.371094 172.21875 C 297.949219 172.566406 297.511719 172.894531 297.058594 173.199219 C 296.605469 173.503906 296.136719 173.785156 295.65625 174.042969 C 295.175781 174.304688 294.683594 174.539062 294.175781 174.746094 C 293.671875 174.957031 293.160156 175.140625 292.636719 175.300781 C 292.113281 175.460938 291.585938 175.59375 291.046875 175.703125 C 290.511719 175.808594 289.972656 175.890625 289.429688 175.945312 C 288.886719 175.996094 288.339844 176.023438 287.792969 176.023438 C 287.246094 176.023438 286.703125 175.996094 286.15625 175.945312 C 285.613281 175.890625 285.074219 175.808594 284.539062 175.703125 C 284 175.59375 283.472656 175.460938 282.949219 175.300781 C 282.425781 175.140625 281.914062 174.957031 281.410156 174.746094 C 280.90625 174.539062 280.410156 174.304688 279.929688 174.042969 C 279.449219 173.785156 278.980469 173.503906 278.527344 173.199219 C 278.074219 172.894531 277.636719 172.566406 277.214844 172.21875 C 276.792969 171.871094 276.390625 171.5 276.007812 171.113281 Z M 276.007812 171.113281 " fill-opacity="1" fill-rule="nonzero"/></g></g></g></g></svg>